<?xml version="1.0" encoding="UTF-8"?>
<svg xmlns="http://www.w3.org/2000/svg" xmlns:xlink="http://www.w3.org/1999/xlink" width="32px" height="32px" viewBox="0 0 32 32" version="1.1">
<g id="surface1">
<path style=" stroke:none;fill-rule:nonzero;fill:rgb(0%,0%,0%);fill-opacity:1;" d="M 16 0.375 C 7.382812 0.375 0.375 7.382812 0.375 16 C 0.375 24.617188 7.382812 31.625 16 31.625 C 24.617188 31.625 31.625 24.617188 31.625 16 C 31.625 7.382812 24.617188 0.375 16 0.375 Z M 16 30.125 C 8.210938 30.125 1.875 23.789062 1.875 16 C 1.875 8.210938 8.210938 1.875 16 1.875 C 23.789062 1.875 30.125 8.210938 30.125 16 C 30.125 23.789062 23.789062 30.125 16 30.125 Z M 16 30.125 "/>
<path style=" stroke:none;fill-rule:nonzero;fill:rgb(0%,0%,0%);fill-opacity:1;" d="M 16 4.125 C 15.585938 4.125 15.25 4.460938 15.25 4.875 L 15.25 8.292969 C 15.25 8.707031 15.585938 9.042969 16 9.042969 C 16.414062 9.042969 16.75 8.707031 16.75 8.292969 L 16.75 4.875 C 16.75 4.460938 16.414062 4.125 16 4.125 Z M 16 4.125 "/>
<path style=" stroke:none;fill-rule:nonzero;fill:rgb(0%,0%,0%);fill-opacity:1;" d="M 16 22.957031 C 15.585938 22.957031 15.25 23.292969 15.25 23.707031 L 15.25 27.125 C 15.25 27.539062 15.585938 27.875 16 27.875 C 16.414062 27.875 16.75 27.539062 16.75 27.125 L 16.75 23.707031 C 16.75 23.292969 16.414062 22.957031 16 22.957031 Z M 16 22.957031 "/>
<path style=" stroke:none;fill-rule:nonzero;fill:rgb(0%,0%,0%);fill-opacity:1;" d="M 8.664062 7.601562 C 8.371094 7.308594 7.894531 7.308594 7.601562 7.601562 C 7.308594 7.894531 7.308594 8.371094 7.601562 8.664062 L 10.019531 11.078125 C 10.164062 11.226562 10.359375 11.300781 10.550781 11.300781 C 10.742188 11.300781 10.933594 11.226562 11.078125 11.078125 C 11.371094 10.785156 11.371094 10.3125 11.078125 10.019531 Z M 8.664062 7.601562 "/>
<path style=" stroke:none;fill-rule:nonzero;fill:rgb(0%,0%,0%);fill-opacity:1;" d="M 21.980469 20.921875 C 21.6875 20.628906 21.214844 20.628906 20.921875 20.921875 C 20.628906 21.214844 20.628906 21.6875 20.921875 21.980469 L 23.335938 24.398438 C 23.484375 24.542969 23.675781 24.617188 23.867188 24.617188 C 24.058594 24.617188 24.25 24.542969 24.398438 24.398438 C 24.691406 24.105469 24.691406 23.628906 24.398438 23.335938 Z M 21.980469 20.921875 "/>
<path style=" stroke:none;fill-rule:nonzero;fill:rgb(0%,0%,0%);fill-opacity:1;" d="M 21.449219 11.300781 C 21.640625 11.300781 21.835938 11.226562 21.980469 11.078125 L 24.398438 8.664062 C 24.691406 8.371094 24.691406 7.894531 24.398438 7.601562 C 24.105469 7.308594 23.628906 7.308594 23.335938 7.601562 L 20.921875 10.019531 C 20.628906 10.3125 20.628906 10.789062 20.921875 11.078125 C 21.066406 11.226562 21.257812 11.300781 21.449219 11.300781 Z M 21.449219 11.300781 "/>
<path style=" stroke:none;fill-rule:nonzero;fill:rgb(0%,0%,0%);fill-opacity:1;" d="M 10.019531 20.921875 L 7.601562 23.335938 C 7.308594 23.628906 7.308594 24.105469 7.601562 24.398438 C 7.75 24.542969 7.941406 24.617188 8.132812 24.617188 C 8.324219 24.617188 8.515625 24.542969 8.664062 24.398438 L 11.078125 21.980469 C 11.371094 21.6875 11.371094 21.214844 11.078125 20.921875 C 10.785156 20.628906 10.3125 20.628906 10.019531 20.921875 Z M 10.019531 20.921875 "/>
<path style=" stroke:none;fill-rule:nonzero;fill:rgb(0%,0%,0%);fill-opacity:1;" d="M 9.042969 16 C 9.042969 15.585938 8.707031 15.25 8.292969 15.25 L 4.875 15.25 C 4.460938 15.25 4.125 15.585938 4.125 16 C 4.125 16.414062 4.460938 16.75 4.875 16.75 L 8.292969 16.75 C 8.707031 16.75 9.042969 16.414062 9.042969 16 Z M 9.042969 16 "/>
<path style=" stroke:none;fill-rule:nonzero;fill:rgb(0%,0%,0%);fill-opacity:1;" d="M 27.125 15.25 L 23.707031 15.25 C 23.292969 15.25 22.957031 15.585938 22.957031 16 C 22.957031 16.414062 23.292969 16.75 23.707031 16.75 L 27.125 16.75 C 27.539062 16.75 27.875 16.414062 27.875 16 C 27.875 15.585938 27.539062 15.25 27.125 15.25 Z M 27.125 15.25 "/>
</g>
</svg>
